<?xml version="1.0" encoding="UTF-8"?>
<svg id="Lager_2" data-name="Lager 2" xmlns="http://www.w3.org/2000/svg" viewBox="0 0 196.55 69.82">
  <defs>
    <style>
      .cls-1 {
        stroke: #263a99;
        stroke-miterlimit: 10;
        stroke-width: .84px;
      }

      .cls-1, .cls-2 {
        fill: #263a99;
      }

      .cls-3 {
        fill: #264aac;
      }
    </style>
  </defs>
  <g id="Lager_1-2" data-name="Lager 1">
    <g>
      <path class="cls-3" d="M103.89,29.88v-4.29c0-8.5-5.46-13.18-14.19-13.18s-14.2,4.68-14.2,13.18v19.57c2.33,1.5,3.42,4.19,3.42,7.58v3.04c2.47,2.46,6.17,3.74,10.78,3.74,8.73,0,14.19-4.6,14.19-13.1v-4.29h-9.67v4.29c0,2.8-1.56,4.29-4.52,4.29s-4.53-1.49-4.53-4.29v-20.83c0-2.89,1.64-4.37,4.53-4.37s4.52,1.48,4.52,4.37v4.29h9.67Z"/>
      <path class="cls-3" d="M124.72,50.08c-2.57,0-3.67-1.25-3.67-3.66v-24.89h7.65v-8.34h-7.65V5h-6.78l-2.5,8.19h-4.84v8.34h4.37v25.35c0,7.18,3.12,12.25,11.39,12.25,3.82,0,6.4-1.09,6.55-1.17v-8.89c-.15.08-1.95,1.01-4.52,1.01Z"/>
      <path class="cls-3" d="M146.87,12.41c-8.97,0-14.2,4.29-14.2,12.79v3.2h9.6v-3.2c0-2.89,1.48-4.14,4.6-4.14s4.6,1.25,4.6,4.14v5.77l-10.06,3.67c-5.85,2.18-9.05,5.3-9.05,11.23v2.42c0,7.02,4.06,11,11.23,11,5.85,0,7.65-3.51,8.12-4.68v4.13h9.51V25.2c0-8.5-5.3-12.79-14.35-12.79ZM151.47,46.96c0,2.65-1.56,4.37-4.91,4.37-3.04,0-4.53-1.33-4.53-3.98v-1.25c0-2.65,1.02-3.9,3.9-4.83l5.54-1.95v7.64Z"/>
      <path class="cls-3" d="M168.94,14.2v44.54h9.75V14.2h-9.75ZM173.86,0c-4.29,0-5.62,2.27-5.62,5.39s1.33,5.3,5.62,5.3,5.54-2.26,5.54-5.3-1.41-5.39-5.54-5.39Z"/>
      <path class="cls-3" d="M186.8,1.1v57.64h9.75V1.1h-9.75Z"/>
    </g>
    <g>
      <path class="cls-2" d="M30.89,23.72v-5.85c0-7.88-5.07-13.5-15.52-13.5S0,9.99,0,17.87v28.16c0,7.87,4.99,13.49,15.37,13.49s15.52-5.62,15.52-13.49v-5.78h-9.91v5.31c0,2.96-1.64,4.91-5.61,4.91s-5.47-1.95-5.47-4.91v-27.23c0-2.96,1.57-4.91,5.47-4.91s5.61,2.03,5.61,4.91v5.39h9.91Z"/>
      <path class="cls-2" d="M68.56,43.94v-26.07c0-7.88-5.07-13.5-15.52-13.5s-15.37,5.62-15.37,13.5v28.16c0,7.87,4.99,13.49,15.37,13.49,5.11,0,8.92-1.33,11.49-3.62h-2.88v-3.16c0-4.79,2.17-8.16,6.91-8.8ZM58.65,45.56c0,2.96-1.63,4.91-5.61,4.91s-5.46-1.95-5.46-4.91v-27.23c0-2.96,1.56-4.91,5.46-4.91s5.61,2.03,5.61,4.91v27.23Z"/>
    </g>
    <path class="cls-1" d="M74.41,48.16c-.97-.84-2.38-1.31-4.28-1.31-.57,0-1.1.04-1.59.13-2.98.51-4.34,2.53-4.34,5.35v1.94h4.08v-1.78c0-1.3.45-1.98,1.85-1.98s1.85.68,1.85,1.98v1.56c0,1.49-.26,2.05-1.3,2.73l-3.66,2.43c-1.6,1.05-2.55,2.37-2.69,4.63,0,.17,0,.35,0,.52v5.03h11.71v-3.57h-7.62v-1.24c0-1.42.13-1.91,1.75-2.98l3.43-2.27c1.69-1.1,2.43-2.56,2.47-4.83v-2.17c0-1.76-.53-3.22-1.66-4.18Z"/>
  </g>
</svg>