<?xml version="1.0" encoding="UTF-8"?>
<svg id="Lager_2" data-name="Lager 2" xmlns="http://www.w3.org/2000/svg" viewBox="0 0 304.31 82.18">
  <defs>
    <style>
      .cls-1 {
        fill: #526aa0;
      }

      .cls-2 {
        fill: #fff;
      }

      .cls-3 {
        fill: #273c76;
      }
    </style>
  </defs>
  <g id="Lager_1-2" data-name="Lager 1">
    <g>
      <path class="cls-1" d="M126.05,37.54c0-13.23,10-22.25,22.54-22.25,6.02,0,11.22,1.4,14.61,3.6.54.35.87.93.87,1.57v6.34c0,1.38-1.48,2.31-2.69,1.64-2.67-1.48-5.51-2.07-8.58-2.07-6.57,0-11.56,4.21-11.56,11.17s5,11.37,11.56,11.37c3.02,0,5.94-.63,8.56-2.1,1.22-.68,2.71.23,2.71,1.62v6.39c0,.62-.32,1.2-.83,1.55-3.39,2.28-8.61,3.61-14.65,3.61-12.54,0-22.54-9.21-22.54-22.44Z"/>
      <path class="cls-1" d="M192,28.01v28.94c0,1.02-.83,1.85-1.85,1.85h-11.5c-1.02,0-1.85-.83-1.85-1.85v-28.94c0-1.02-.83-1.85-1.85-1.85h-4.54c-1.02,0-1.85-.83-1.85-1.85v-6.01c0-1.02.83-1.85,1.85-1.85h4.54c1.02,0,1.85-.83,1.85-1.85v-7.87c0-1.02.83-1.85,1.85-1.85h11.5c1.02,0,1.85.83,1.85,1.85v7.87c0,1.02.83,1.85,1.85,1.85h4.54c1.02,0,1.85.83,1.85,1.85v6.01c0,1.02-.83,1.85-1.85,1.85h-4.54c-1.02,0-1.85.83-1.85,1.85Z"/>
      <path class="cls-1" d="M239.13,57.08v-.02c-.1-1.52-1.87-2.24-3.06-1.27-3.61,2.95-8.31,4.2-12.12,4.2-11.37,0-19.6-9.21-19.6-22.35s8.23-22.35,19.6-22.35c3.81,0,8.51,1.25,12.12,4.2,1.18.97,2.96.25,3.06-1.27v-.02c.07-.97.87-1.73,1.84-1.73h10.44c1.02,0,1.85.83,1.85,1.85v38.65c0,1.02-.83,1.85-1.85,1.85h-10.44c-.97,0-1.78-.75-1.84-1.73ZM229.05,26.07c-5.39,0-9.51,4.21-9.51,11.56s4.12,11.57,9.51,11.57,9.51-4.21,9.51-11.57-4.12-11.56-9.51-11.56Z"/>
      <path class="cls-1" d="M263.64,8.64V1.85c0-1.02.83-1.85,1.85-1.85h11.5c1.02,0,1.85.83,1.85,1.85v6.8c0,1.02-.83,1.85-1.85,1.85h-11.5c-1.02,0-1.85-.83-1.85-1.85ZM263.64,56.96V18.31c0-1.02.83-1.85,1.85-1.85h11.5c1.02,0,1.85.83,1.85,1.85v38.65c0,1.02-.83,1.85-1.85,1.85h-11.5c-1.02,0-1.85-.83-1.85-1.85Z"/>
      <path class="cls-1" d="M289.12,56.96V1.85c0-1.02.83-1.85,1.85-1.85h11.5c1.02,0,1.85.83,1.85,1.85v55.11c0,1.02-.83,1.85-1.85,1.85h-11.5c-1.02,0-1.85-.83-1.85-1.85Z"/>
    </g>
    <g>
      <path class="cls-3" d="M0,33.85C0,15.64,14.09,4.46,30.33,4.46c6.87,0,13.51,1.64,18.2,4.53,1.02.63,1.61,1.75,1.61,2.94s0,2.89,0,4.57c0,2.65-2.82,4.29-5.15,3.05-3.58-1.89-7.69-3.07-12.12-3.07-9.48,0-16.72,6.11-16.72,17.38s7.23,17.37,16.72,17.37c4.44,0,8.55-1.17,12.12-3.06,2.34-1.24,5.15.4,5.15,3.05v4.56c0,1.19-.6,2.32-1.61,2.95-4.69,2.89-11.33,4.53-18.2,4.53C14.09,63.25,0,52.07,0,33.85Z"/>
      <path class="cls-3" d="M55.78,38.05c-2.5-18.26,12.43-33.9,30.85-33.97,17.25-.07,31.22,12.45,31.22,29.77s-13.9,29.77-31.08,29.77c-15.85,0-28.93-10.5-30.99-25.57ZM101.7,33.85c0-10.8-5.54-17.84-14.93-17.84s-15.12,7.04-15.12,17.84,5.63,17.84,15.12,17.84,14.93-7.04,14.93-17.84Z"/>
    </g>
    <g>
      <path class="cls-3" d="M111.8,79.68c-2.54,0-4.6-2.06-4.6-4.6v-1.42c0-1.2.46-2.33,1.29-3.19l5.89-6.12c2.32-2.4,4.52-4.67,4.52-6.63,0-.78-.65-.95-1.19-.95-1.05,0-2.02.26-3.13.84-.64.33-1.35.51-2.06.51-1.18,0-2.35-.48-3.21-1.33-.89-.88-1.38-2.05-1.38-3.29v-2.1c0-1.67.89-3.2,2.33-4.01,2.82-1.58,6.88-2.69,9.87-2.69,7.62,0,13.37,5.02,13.37,11.67,0,4.29-1.74,8.05-5.32,11.42h1.35c2.54,0,4.6,2.06,4.6,4.6v2.69c0,2.54-2.06,4.6-4.6,4.6h-17.73Z"/>
      <path class="cls-2" d="M120.13,47.2c5.87,0,10.87,3.54,10.87,9.17,0,5-2.86,8.39-6.11,10.96l-3.74,2.96h8.38c1.16,0,2.1.94,2.1,2.1v2.69c0,1.16-.94,2.1-2.1,2.1h-17.73c-1.16,0-2.1-.94-2.1-2.1v-1.42c0-.54.21-1.06.59-1.46l5.53-5.74c2.81-2.91,5.58-5.63,5.58-8.73,0-2.52-2.13-3.45-3.69-3.45-1.39,0-2.75.32-4.28,1.12-.3.15-.6.22-.91.22-1.09,0-2.09-.92-2.09-2.12v-2.1c0-.76.4-1.46,1.06-1.83,2.28-1.28,5.92-2.37,8.64-2.37M120.13,42.2c-3.96,0-8.43,1.51-11.09,3.01-2.23,1.25-3.61,3.62-3.61,6.19v2.1c0,3.93,3.18,7.12,7.09,7.12.77,0,1.54-.13,2.27-.39-.73.84-1.57,1.71-2.21,2.37l-.36.37-5.53,5.75c-1.28,1.33-1.98,3.08-1.98,4.92v1.42c0,3.91,3.18,7.1,7.1,7.1h17.73c3.91,0,7.1-3.18,7.1-7.1v-2.69c0-2.69-1.5-5.03-3.71-6.24,2.07-2.96,3.08-6.2,3.08-9.79,0-8.08-6.82-14.17-15.87-14.17h0Z"/>
    </g>
  </g>
</svg>