<?xml version="1.0" encoding="UTF-8"?>
<svg id="Lager_2" data-name="Lager 2" xmlns="http://www.w3.org/2000/svg" viewBox="0 0 82.94 213.3">
  <defs>
    <style>
      .cls-1 {
        fill: #8f3b49;
      }
    </style>
  </defs>
  <g id="Lager_1-2" data-name="Lager 1">
    <path class="cls-1" d="M79.32,205.95c.92.09,1.76.64,2.17,1.47,1.89,3.8-6.85,4.81-6.85,4.81,0,0-8.37.77-17.19,1.03h-9.13s-14.2.03-14.2.03h-6.93s-.02,0-.02,0c-9.42-.19-18.86-1.06-18.86-1.06,0,0-8.74-1-6.84-4.81.41-.83,1.25-1.38,2.17-1.47,11.86-1.17,26.97-9.87,31.19-12.42.73-.44,1.21-1.18,1.33-2.02,1.11-8.05,6.4-51.23-3.96-81.08-.22-.65-.69-1.18-1.29-1.52C-1.34,90.53-.08,64.48.03,62.85c0-.06,0-.12,0-.19,0-2.69.26-54.92,9.91-58.94C17.38.64,32.46.09,39.55.01c0,0,1.48-.03,3.84,0,7.09.08,22.17.63,29.6,3.71,9.66,4.02,9.91,56.25,9.91,58.94,0,.06,0,.12,0,.19.11,1.62,1.38,27.68-30.87,46.05-.6.34-1.06.88-1.29,1.52-10.35,29.85-5.08,73.03-3.96,81.08.12.84.6,1.58,1.33,2.02,4.22,2.55,19.33,11.25,31.2,12.42Z"/>
  </g>
</svg>